# Blender v2.70 (sub 0) OBJ File: 'sky.blend'
# www.blender.org
mtllib box.mtl
o Cube
v -1.000000 -1.000000 1.000000
v -1.000000 -1.000000 -1.000000
v 1.000000 -1.000000 -1.000000
v 1.000000 -1.000000 1.000000
v -1.000000 1.000000 1.000000
v -1.000000 1.000000 -1.000000
v 1.000000 1.000000 -1.000000
v 1.000000 1.000000 1.000000
vt 1.000000 0.000000
vt 1.000000 1.000000
vt 0.000000 1.000000
vt 1.000000 0.000000
vt 1.000000 1.000000
vt 0.000000 1.000000
vt 1.000000 1.000000
vt 1.000000 1.000000
vt 0.000000 0.000000
vn -1.000000 0.000000 0.000000
vn 0.000000 0.000000 -1.000000
vn 1.000000 0.000000 0.000000
vn 0.000000 0.000000 1.000000
vn 0.000000 -1.000000 0.000000
vn 0.000000 1.000000 0.000000
usemtl Material
s off
f 6/1/1 2/2/1 1/3/1
f 7/1/2 3/2/2 2/3/2
f 8/4/3 4/5/3 3/3/3
f 5/4/4 1/5/4 4/3/4
f 2/6/5 3/7/5 4/1/5
f 7/6/6 6/8/6 5/4/6
f 5/9/1 6/1/1 1/3/1
f 6/9/2 7/1/2 2/3/2
f 7/9/3 8/4/3 3/3/3
f 8/9/4 5/4/4 4/3/4
f 1/9/5 2/6/5 4/1/5
f 8/9/6 7/6/6 5/4/6
